/* XPM */
static char *collect[] = {
/* columns rows colors chars-per-pixel */
"32 32 15 1 ",
"  c #936044",
"X c #241310",
"& c #2C4D32",
"* c #315334",
"= c #345734",
"- c #3E6337",
"3 c #497039",
"5 c #517A3B",
"i c #B5753A",
"s c #C27E3E",
"b c #EBA434",
"n c #F2AE34",
"m c #F5B133",
"M c #FABB37",
"N c #FCBE38",
/* pixels */
"                                ",
"                                ",
"        sssNNsssss              ",
"      ssssNNNNsssss             ",
"     sNsssNNNNNNssss            ",
"    ssNNsNNNNNNNssNsss          ",
"    sssNNNmmmmNNNmmNNs          ",
"    sNNbbNNNmmNNNNmmNN          ",
"    sNNbbNNNmmNNNNmmNN          ",
"    smmbbNNNmmNNNNbbm           ",
"    sssNNmmNNbbNNs   iinniis    ",
"    sssNNmmNNbbNNs   iinniis    ",
"     ssssNNNssss  iinnMMnniis   ",
"       sssNNsss   iinnMMnniis   ",
"       ssssNss    iinnMMnniis   ",
"    ==55------33**nnMMMMbbMMii  ",
"    ====333333****iinnbbbbMMMM  ",
"        **33**  &&--iinnMMnnii  ",
"        **55**  &&33--iiMMiii   ",
"        **55**&&33&&--&&        ",
"        **55**&&33&&&&&&        ",
"        **33**33&&              ",
"        **--**33&&              ",
"         &&&&&33&&              ",
"         &&&&&33&&              ",
"          &&&&33&&              ",
"          &&&&33&&              ",
"          &&&&33&&              ",
"          &&&&33&&              ",
"          &&&&33&&              ",
"          &&&&33&&              ",
"                                ",
"                                "
};
