/* XPM */
static char *enemy[] = {
/* columns rows colors chars-per-pixel */
"32 32 9 1 ",
"  c #936044",
". c #1A0F0F",
"X c #241310",
"o c #381B13",
"O c #7A3519",
"8 c #B84D1F",
"p c #D15F21",
"B c #A68476",
"Z c #EBB97C",
/* pixels */
"                                ",
"                                ",
"        ..            ..        ",
"         ..          ..         ",
"          ..        ..          ",
"           ..      ..           ",
"            ..    ..            ",
"             ..  ..             ",
"    XXXXXXXX  ....  XXXXXXXX    ",
"    XXXXXXXX  ....  XXXXXXXX    ",
"   XXooBBBooo......oooBBBooXX   ",
"   XXooBBBooo......oooBBBooXX   ",
"  XXBB88oooOO......OOooo88BBXX  ",
"  XXBB88oooOO......OOooo88BBXX  ",
"  XXoo88ooOOpp....ppOOoo88ooXX  ",
"  XXoo88ooOOpp....ppOOoo88ooXX  ",
"  XXoo88OO88oo....oo88OO88ooXX  ",
"  XXoo88OO88oo....oo88OO88ooXX  ",
"  XXoo88OO88oo....oo88OO88ooXX  ",
"    ooOO88oopp....ppoo88OOoo    ",
"    ooOO88oopp....ppoo88OOoo    ",
"    ooOO88oopp....ppoo88OOoo    ",
"       oooOO88....88OOoooo      ",
"       oooOO88....88OOoooo      ",
"         XXBBoo..ooBBXX         ",
"         XXBBoo..ooBBXX         ",
"         XXBBoo..ooBBXX         ",
"           XXXX  XXXX           ",
"           XXXX  XXXX           ",
"           XXXX  XXXX           ",
"                                ",
"                                "
};
