/* XPM */
static char *player_2[] = {
/* columns rows colors chars-per-pixel */
"32 32 33 1 ",
"  c #936044",
". c #1C1C1F",
"X c #28282B",
"o c #2C2C30",
"O c #402E30",
"+ c #553A3A",
"@ c #753030",
"# c #783A3D",
"$ c #3F4921",
"% c #505726",
"& c #5E6429",
"* c #777431",
"= c #323942",
"- c #393940",
"; c #4B555E",
": c #634440",
"> c #634D49",
", c #715148",
"< c #785A53",
"1 c #435361",
"2 c #604374",
"3 c #4B6275",
"4 c #8C3430",
"5 c #8A3E3E",
"6 c #A14343",
"7 c #B35249",
"9 c #BA8A79",
"0 c #6E4A83",
"q c #764C88",
"w c #7D4E8D",
"e c #8C5296",
"r c #9D58A2",
"t c #DEA48A",
/* pixels */
"                                ",
"                                ",
"                                ",
"             000$$0             ",
"           00rr$*&$00           ",
"          0reww$&&$qq0          ",
"          2ewre$%%$ee2          ",
"         2rwrrwrewewee2         ",
"         2eqeeweewewee2         ",
"         2qwwqeeeweeqw2         ",
"         2qewqewwqewqw2         ",
"         22222222222222         ",
"         O+::+++t++++O          ",
"         O,+:+t;ttt;9+O         ",
"         O+:+tt;ttt;<+O         ",
"          @4<ttttttt<4@         ",
"         O,:O<<999<<<:,O        ",
"         OOO<tttttt99<<O        ",
"           ##7777766#           ",
"          #7777777766           ",
"            7577777##           ",
"            5777777#            ",
"            #666666#            ",
"             =333               ",
"                 X.             ",
"              .o-.              ",
"                                ",
"                                ",
"                                ",
"                                ",
"                                ",
"                                "
};
