/* XPM */
static char *wall[] = {
/* columns rows colors chars-per-pixel */
"32 32 10 1 ",
"  c #936044",
"# c #2E4E27",
"$ c #35562B",
"% c #3C5D2D",
"1 c #456730",
"2 c #446933",
"4 c #4B7539",
"l c #5A8039",
"z c #60873B",
"x c #688F3B",
/* pixels */
"                                ",
"                                ",
"    ####                        ",
"    #####                       ",
"    ######                      ",
"    #######                     ",
"    ########                    ",
"    ##########                  ",
"     #####%%%%%%%%%11111        ",
"      $$$222llllzzzxxx111       ",
"      $$$222llllzzzxxx111       ",
"      $$$lll22zzzzzz11111       ",
"      $$$444ll22222llxxx111     ",
"      $$$444ll22222llxxx111     ",
"      $$$44444llzzz22zzz111     ",
"      $$$44444llzzz22zzz111     ",
"      $$$lll$$44llzzz222%%%     ",
"      $$$lll$$44llzzz222%%%     ",
"       $$$$$44444$$$22zzz111    ",
"       $$$$$44444$$$22zzz111    ",
"         $$$$$$$4442222%%%      ",
"         $$$$$$$4442222%%%      ",
"               $$$$$$$$$$$      ",
"                $$$$$$$$$$      ",
"                 $$$$$$$$$      ",
"                  $$$$$$$$      ",
"                    $$$$$$      ",
"                     $$$$$      ",
"                      $$$$      ",
"                       $$$      ",
"                                ",
"                                "
};
